HIERARCHY
ROOT Pelvis
{
	OFFSET 0.000000 0.000000 0.000000
	CHANNELS 6 Xposition Yposition Zposition Zrotation Yrotation Xrotation 
	JOINT Left_hip
	{
		OFFSET 0.070241 -0.085575 -0.010474
		CHANNELS 3 Zrotation Yrotation Xrotation
		JOINT Left_knee
		{
			OFFSET 0.032125 -0.356873 -0.000555
			CHANNELS 3 Zrotation Yrotation Xrotation
			JOINT Left_ankle
			{
				OFFSET -0.010961 -0.370212 -0.042278
				CHANNELS 3 Zrotation Yrotation Xrotation
				JOINT Left_foot
				{
					OFFSET 0.023322 -0.052281 0.110104
					CHANNELS 3 Zrotation Yrotation Xrotation
					End Site
					{
						OFFSET 0.000000 0.000000 0.000000
					}
				}
			}
		}
	}
	JOINT Right_hip
	{
		OFFSET -0.068518 -0.084320 -0.007402
		CHANNELS 3 Zrotation Yrotation Xrotation
		JOINT Right_knee
		{
			OFFSET -0.037345 -0.364815 -0.003619
			CHANNELS 3 Zrotation Yrotation Xrotation
			JOINT Right_ankle
			{
				OFFSET 0.013394 -0.370006 -0.039954
				CHANNELS 3 Zrotation Yrotation Xrotation
				JOINT Right_foot
				{
					OFFSET -0.019600 -0.045455 0.113223
					CHANNELS 3 Zrotation Yrotation Xrotation
					End Site
					{
						OFFSET 0.000000 0.000000 0.000000
					}
				}
			}
		}
	}
	JOINT Spine1
	{
		OFFSET -0.002404 0.098129 -0.018169
		CHANNELS 3 Zrotation Yrotation Xrotation
		JOINT Spine2
		{
			OFFSET 0.003989 0.127209 -0.001742
			CHANNELS 3 Zrotation Yrotation Xrotation
			JOINT Spine3
			{
				OFFSET 0.001758 0.046641 0.023475
				CHANNELS 3 Zrotation Yrotation Xrotation
				JOINT Neck
				{
					OFFSET -0.003759 0.194901 -0.039982
					CHANNELS 3 Zrotation Yrotation Xrotation
					JOINT Head
					{
						OFFSET 0.003999 0.063756 0.047665
						CHANNELS 3 Zrotation Yrotation Xrotation
						End Site
						{
							OFFSET 0.000000 0.000000 0.000000
						}
					}
				}
				JOINT Left_collar
				{
					OFFSET 0.071816 0.109048 -0.028973
					CHANNELS 3 Zrotation Yrotation Xrotation
					JOINT Left_shoulder
					{
						OFFSET 0.084027 0.032269 -0.006525
						CHANNELS 3 Zrotation Yrotation Xrotation
						JOINT Left_elbow
						{
							OFFSET 0.243854 -0.013992 -0.025905
							CHANNELS 3 Zrotation Yrotation Xrotation
							JOINT Left_wrist
							{
								OFFSET 0.232156 0.008196 -0.000339
								CHANNELS 3 Zrotation Yrotation Xrotation
								JOINT Left_palm
								{
									OFFSET 0.075377 -0.009461 -0.012494
									CHANNELS 3 Zrotation Yrotation Xrotation
									End Site
									{
										OFFSET 0.000000 0.000000 0.000000
									}
								}
							}
						}
					}
				}
				JOINT Right_collar
				{
					OFFSET -0.073768 0.107001 -0.033755
					CHANNELS 3 Zrotation Yrotation Xrotation
					JOINT Right_shoulder
					{
						OFFSET -0.086837 0.032868 -0.009431
						CHANNELS 3 Zrotation Yrotation Xrotation
						JOINT Right_elbow
						{
							OFFSET -0.236446 -0.012544 -0.018747
							CHANNELS 3 Zrotation Yrotation Xrotation
							JOINT Right_wrist
							{
								OFFSET -0.236110 0.006124 -0.004327
								CHANNELS 3 Zrotation Yrotation Xrotation
								JOINT Right_palm
								{
									OFFSET -0.074800 -0.006875 -0.009610
									CHANNELS 3 Zrotation Yrotation Xrotation
									End Site
									{
										OFFSET 0.000000 0.000000 0.000000
									}
								}
							}
						}
					}
				}
			}
		}
	}
}
MOTION
Frames: 14
Frame Time: 0.100000
0.000000 0.000000 0.000000 177.089248 17.639532 -8.467568 3.314622 8.524599 4.458746 2.551130 -9.105789 -7.654675 -4.192968 22.289759 -1.132627 5.445525 -2.601189 -4.619093 -0.438176 -6.179767 0.430826 -1.627506 11.052301 -3.541155 3.372712 -18.561809 -3.518576 2.916534 6.413835 5.552364 1.089747 2.467234 -3.051309 1.008632 -1.817579 -2.151269 0.232230 3.625677 -3.377100 -2.939336 0.838582 0.153795 2.232220 6.152846 2.250843 -7.360391 -1.364068 -11.105405 -0.443784 -12.233870 -10.466397 1.976000 7.201288 1.700848 15.767082 -4.971449 34.126043 -6.954956 -12.347941 -8.722366 9.815343 4.877198 -4.885906 -8.436607 12.068195 -25.639557 -6.858739 -14.116175 -9.156022 -15.244517 3.751058 34.762621 12.663247 11.984639 -9.950683 
-0.000262 -0.000012 0.000757 177.057930 17.612246 -8.583870 3.382814 8.540240 4.602013 2.522880 -9.216537 -7.600870 -4.089630 22.377560 -1.163890 5.369058 -2.541339 -4.736025 -0.423085 -6.192599 0.617760 -1.629206 11.049004 -3.587067 3.407297 -18.519361 -3.532070 2.957693 6.302865 5.495512 0.994172 2.503761 -3.204174 1.162647 -1.882465 -2.122025 0.378664 3.577429 -3.332266 -2.702973 2.506897 0.181924 2.289178 7.655222 2.382163 -7.278927 -1.449418 -11.001705 0.126793 -11.873555 -10.821578 1.827723 7.456032 1.818592 14.653246 -4.709689 34.148143 -6.997160 -12.272286 -8.679724 9.936986 4.630362 -4.745163 -7.997599 11.746606 -25.417038 -6.947389 -13.835773 -8.982401 -14.125801 3.281405 34.476200 12.807492 11.935384 -9.810679 
-0.000337 -0.000031 0.001614 177.067392 17.631118 -8.715256 3.434004 8.547379 4.818824 2.511540 -9.282424 -7.639038 -4.066176 22.363237 -1.214131 5.311096 -2.502336 -4.663305 -0.453203 -6.215358 0.900880 -1.632881 11.039252 -3.742938 3.362159 -18.500303 -3.555942 3.166442 6.281664 5.591429 0.917465 2.546446 -3.462234 1.201951 -1.907847 -1.966820 0.372342 3.560221 -3.360422 -2.716529 2.851620 0.539217 2.221638 7.669030 2.524188 -7.107028 -1.377187 -11.074205 0.910821 -11.831074 -11.331725 1.833473 7.310320 1.240329 13.832416 -4.477796 34.003179 -6.966730 -12.228683 -8.710118 9.951272 4.559201 -4.714202 -8.122881 11.461039 -25.339257 -7.148506 -13.368903 -8.912421 -13.613201 3.089944 34.387677 12.816644 11.913321 -9.801489 
-0.000115 0.000029 0.002106 177.078170 17.565714 -8.835345 3.470371 8.564902 4.958930 2.513880 -9.174117 -7.597045 -4.036837 22.282930 -1.287511 5.272918 -2.472692 -4.630137 -0.479199 -6.240853 1.073931 -1.600693 10.993695 -3.814283 3.267988 -18.374089 -3.556157 3.445250 6.299215 5.772734 0.869951 2.652555 -3.744147 1.177921 -1.793142 -1.574317 0.270543 3.630666 -3.504100 -2.619067 2.701852 0.985271 2.148745 7.326307 2.816094 -7.246020 -1.062558 -11.105685 1.161213 -11.852517 -11.094840 1.987734 5.821549 1.541130 13.768281 -4.816512 33.950467 -7.041031 -12.253394 -8.840834 10.107372 4.402246 -4.623392 -8.301770 11.359780 -25.201969 -7.271653 -12.831979 -8.879915 -13.435592 3.278157 34.189358 12.803433 11.942530 -9.800082 
0.000534 0.000423 0.002389 177.093692 17.636944 -8.958846 3.527602 8.540136 5.048428 2.480064 -9.103592 -7.555525 -3.993330 22.123481 -1.355475 5.356026 -2.343818 -4.432750 -0.503677 -6.215896 1.186336 -1.525611 10.797647 -3.769399 2.923550 -18.173896 -3.568978 4.005532 6.107463 5.987808 0.772947 2.692053 -3.968531 1.186997 -1.757735 -1.032824 0.124176 3.600110 -3.859640 -2.334584 2.504138 1.090829 1.950953 7.054579 3.403829 -8.159494 -0.915913 -11.001852 0.753404 -11.962748 -10.640803 2.243231 5.313496 0.764297 14.051646 -4.793438 33.568286 -7.215269 -12.325230 -8.885799 11.037653 4.443468 -4.455133 -7.938725 11.712274 -24.603226 -7.456140 -12.152432 -9.156334 -13.982346 3.420921 33.832453 12.940072 11.993902 -9.680751 
0.000997 0.000694 0.000529 176.991458 17.726803 -9.415024 3.686264 8.436275 5.213258 2.315237 -8.390677 -7.199060 -2.659989 20.826323 -0.704910 3.861867 -0.648194 -5.571193 -0.427026 -6.139115 1.354894 -1.557589 10.268456 -3.350830 2.301346 -17.284329 -3.543554 5.042856 4.955826 6.673707 0.867526 2.549201 -4.072503 1.603347 -1.400037 -0.935878 -0.153026 3.689652 -3.935671 -1.066368 2.160892 1.321066 0.338354 7.782783 4.594470 -8.830901 0.253949 -10.090800 -8.855323 -14.078494 -5.239380 5.621840 -2.488668 5.967479 19.696139 -2.133882 31.999731 -9.521857 -13.682177 -10.063865 12.049400 3.348480 -3.770042 -1.938736 17.477691 -21.089394 -11.673016 -10.797096 -3.894400 -21.191057 2.358721 35.572733 15.338130 13.843638 -10.962196 
0.002433 0.003906 -0.004049 177.207369 18.896561 -10.459914 3.525404 8.013039 5.336761 1.956979 -6.973371 -6.241344 -2.334899 18.544248 -0.632936 3.859336 0.981254 -7.075476 -0.921268 -5.919686 1.894511 -1.420682 8.064035 -2.750340 0.434240 -15.423058 -3.169113 7.331580 4.435790 7.661992 0.665536 2.832674 -5.120713 1.586634 -1.488740 2.635507 -1.025309 3.809324 -6.359932 0.305414 1.389965 -0.190637 -0.182871 8.690220 8.162888 -16.423538 -3.665472 -7.559824 -21.936187 -17.328564 5.876857 3.540583 -20.431467 8.214587 27.945860 -5.446591 23.768841 -13.413946 -14.373616 -9.505842 18.252509 6.670253 -0.882892 9.455947 21.823334 -10.136580 -9.405922 -4.166018 0.785630 -29.318785 7.238735 34.290889 17.856151 15.478306 -9.908567 
0.006235 0.004962 -0.008913 177.335998 20.883699 -11.366084 3.503222 7.664884 5.471972 1.661888 -6.101881 -5.777615 -2.062678 15.969062 -0.032167 3.706750 2.662349 -9.087175 -1.294648 -5.862150 2.685988 -1.482984 5.745218 -2.666717 -0.307685 -13.838271 -2.827102 7.181469 3.986615 7.021237 -0.182385 3.173742 -5.997607 1.246367 -2.570574 7.593946 -1.694869 3.577294 -9.604360 -0.279406 1.920094 -4.449088 0.830981 9.627571 10.403666 -23.790206 -15.223726 -0.912763 -36.787255 -21.482143 20.340623 -3.518729 -34.194988 21.716079 41.126501 -8.192734 20.641315 -18.117718 -16.621872 -12.555125 25.059459 15.246292 5.040764 28.521930 22.988646 4.375612 -4.580474 7.037548 3.536434 -39.809691 9.838222 24.202426 22.517749 17.568509 -9.108585 
0.010253 0.004794 -0.013489 177.036986 21.608321 -11.522401 3.895607 7.433946 5.327721 1.546103 -4.196432 -5.862351 -1.830288 13.258321 1.002336 4.284231 5.220278 -12.566430 -1.013169 -5.650864 2.135797 -1.470387 3.801711 -1.902573 0.601741 -12.359519 -2.693223 4.634643 4.523117 5.301341 -0.747954 3.665167 -5.143423 1.524686 -3.026482 8.855082 -1.286424 3.815252 -11.048424 -2.111403 5.448532 -8.968660 0.367097 9.055827 10.476392 -22.852822 -25.257697 0.681812 -46.437899 -29.918790 32.129562 -25.583383 -58.940472 51.220120 41.348408 -8.444393 18.484085 -22.740970 -19.419806 -15.770078 27.610018 23.263116 8.698112 44.544431 21.693807 20.603202 2.274071 29.338464 17.897782 -38.370388 6.960732 15.285345 25.743670 20.541104 -9.730167 
0.013003 0.003091 -0.015268 176.642633 21.250207 -10.847546 4.329466 6.736219 4.339500 1.565863 -1.626583 -5.385458 -1.928331 10.996708 1.871305 4.595438 7.591862 -15.950599 -0.549706 -5.150793 0.734243 -1.279726 2.141296 -0.970546 3.524638 -11.204308 -3.094092 -0.067396 6.008069 4.055283 -0.818570 4.546947 -4.308686 2.448892 -2.601749 5.752129 0.063603 4.577714 -9.710738 -4.194181 9.551138 -9.295065 -0.179281 6.950571 10.527737 -11.812608 -29.208953 -5.177273 -50.213151 -40.320863 36.860976 -102.665655 -73.707319 131.773891 36.743149 -7.603114 12.225732 -25.887683 -20.689283 -17.240913 22.653931 27.799172 7.331221 51.967674 19.069373 30.361011 20.192254 58.940725 41.063031 -32.742125 4.698196 3.687300 26.931741 21.922376 -10.207093 
0.015143 0.002470 -0.012651 176.008084 23.640004 -11.585039 5.034215 5.423833 2.597039 1.055638 -1.742505 -1.411297 -2.266429 9.713888 1.203659 5.529600 8.731306 -17.699910 -0.705161 -5.201711 0.241677 -0.693954 0.463259 2.258600 4.721515 -10.873216 -4.693613 -2.987675 6.522827 3.362967 -0.904473 4.925635 -3.389759 2.992713 -2.556606 3.906696 0.884879 4.499240 -8.454869 -3.915302 11.145746 -8.146129 0.128605 6.961977 11.185030 -7.779828 -27.150122 -7.860771 -48.455710 -42.998724 34.503694 -149.546212 -62.696351 178.278191 32.981438 -7.697903 5.702936 -27.695360 -20.126222 -15.832761 19.743037 27.545074 5.306796 52.359658 17.939243 32.662751 59.348910 73.021212 82.208291 -28.331836 5.642905 -2.380327 26.959677 21.282374 -8.764816 
0.022168 0.006441 -0.007251 174.613915 28.773582 -14.572578 6.465271 4.375694 -0.021356 -0.418909 -4.309455 6.744341 -2.579713 9.559144 -0.986029 6.998870 8.357741 -19.801135 -1.965015 -4.022264 -0.969915 0.553197 2.826597 12.182609 6.240671 -9.361189 -8.261685 -7.509673 6.621794 1.480641 -0.188067 4.617467 -0.662719 2.513966 -2.169380 3.104861 0.897689 4.219778 -7.110442 -2.539453 9.297210 -8.042776 0.626461 8.714098 11.174827 -11.250325 -21.814800 -6.397989 -49.864322 -36.785096 31.629601 -153.314589 -60.856786 -174.162462 30.816365 -8.154908 11.643398 -28.470499 -21.335505 -16.201532 19.306417 23.416657 4.738856 50.840346 15.056456 30.282768 82.525637 74.365125 105.724828 -24.011243 6.863496 -3.155336 27.251709 21.078788 -7.643955 
0.033993 0.014666 0.005652 172.958030 35.960704 -17.836794 7.607054 3.063105 -2.339508 -2.363985 -7.929882 13.594084 -1.589818 9.351003 -3.256755 6.119007 7.268175 -20.630689 -6.213121 -2.133459 0.299735 1.195825 8.424163 18.942992 7.657424 -6.471119 -10.583269 -9.915445 6.389772 0.603956 1.013924 4.496822 1.009024 1.528008 -1.602939 2.974987 0.095006 4.159397 -5.815599 -1.645685 4.356449 -7.741205 0.615043 10.371385 11.513819 -18.376454 -15.423741 -2.818492 -53.095685 -23.836442 29.389280 -145.799814 -71.126100 179.831493 31.834329 -6.414430 16.954146 -28.533406 -22.797422 -16.574696 21.180344 17.333654 5.960732 47.932393 9.087915 25.689196 80.325799 73.775102 102.945948 -22.955284 7.995287 2.156539 28.202379 21.275829 -8.248297 
0.060624 0.026761 0.029017 170.481599 42.879096 -21.110568 9.843448 1.100018 -6.751295 -4.668472 -12.057471 21.965782 -1.463773 8.971804 -5.081095 5.695891 5.845996 -20.817550 -10.528328 -2.328257 3.042770 0.375967 8.826233 21.485513 8.652438 -7.220526 -11.971652 -11.573497 6.269706 0.182024 1.828567 5.005673 1.976618 0.885497 -1.188905 3.743932 -0.550362 3.781871 -4.348199 -0.782967 2.523963 -6.739684 0.084322 10.342400 9.231785 -22.357913 -5.739592 -1.155016 -49.859280 -10.869062 23.692567 -140.313995 -74.679517 175.227310 29.620244 -8.127198 19.001235 -28.003333 -21.849994 -16.063066 22.568250 10.362407 6.597675 45.697286 2.517058 20.734562 79.309593 75.317466 100.499045 -19.210134 9.661274 1.926071 27.468238 19.513579 -6.901756 
